<svg xmlns="http://www.w3.org/2000/svg" version="1.1" viewBox="-5.0 -10.0 110.0 135.0">
 <path d="m74.844 7.7969h-49.688c-2.6719 0-4.8438 2.1719-4.8438 4.8438v74.719c0 1.9219 1.0938 3.625 2.8594 4.4219s3.75 0.48438 5.2344-0.82812l20.453-19.453c0.64062-0.57812 1.625-0.57812 2.2344-0.03125l20.5 19.5s0.03125 0.03125 0.046875 0.03125c0.90625 0.8125 2.0469 1.2188 3.1875 1.2188 0.67188 0 1.3594-0.14062 2-0.4375 1.7656-0.79688 2.8594-2.4844 2.8594-4.4219v-74.719c0-2.6719-2.1719-4.8438-4.8438-4.8438zm1.7188 79.562c0 1.0312-0.78125 1.4531-1.0156 1.5625s-1.0625 0.39062-1.8281-0.26562l-20.516-19.516c-1.8281-1.6094-4.5781-1.6094-6.4531 0.03125l-20.453 19.469c-0.76562 0.6875-1.6094 0.39062-1.8438 0.28125s-1.0156-0.53125-1.0156-1.5625v-74.719c0-0.95312 0.76562-1.7188 1.7188-1.7188h49.688c0.95312 0 1.7188 0.76562 1.7188 1.7188z"/>
<text x="0.0" y="117.5" font-size="5.0" font-weight="bold" font-family="Arbeit Regular, Helvetica, Arial-Unicode, Arial, Sans-serif" fill="#000000">Created by Yosua Bungaran</text><text x="0.0" y="122.5" font-size="5.0" font-weight="bold" font-family="Arbeit Regular, Helvetica, Arial-Unicode, Arial, Sans-serif" fill="#000000">from Noun Project</text></svg>